<?xml version="1.0" encoding="UTF-8"?>
<svg version="1.1" xmlns="http://www.w3.org/2000/svg" width="512" height="512">
<path d="M0 0 C4.9534313 1.30353455 9.13991994 4.51456631 13.36523438 7.30664062 C14.41630371 7.98315674 15.46737305 8.65967285 16.55029297 9.35668945 C18.70371039 10.74307607 20.85330093 12.13542486 22.99902344 13.53369141 C27.54832546 16.4869597 32.14496778 19.36317038 36.74023438 22.24414062 C39.53797983 24.00559643 42.32975101 25.77586423 45.11523438 27.55664062 C45.71432617 27.9351416 46.31341797 28.31364258 46.93066406 28.70361328 C50.99923525 31.32464238 50.99923525 31.32464238 52.11523438 33.55664062 C52.49023438 36.43164062 52.49023438 36.43164062 52.11523438 39.55664062 C48.87906534 42.57202973 45.55822151 44.42940972 41.55273438 46.24414062 C34.74216766 49.55716261 29.01134871 53.83974915 23.11523438 58.55664062 C22.14650391 59.2759375 22.14650391 59.2759375 21.15820312 60.00976562 C11.40356599 67.59416733 4.2424028 79.04754495 0.11523438 90.55664062 C0.11523438 91.54664062 0.11523438 92.53664063 0.11523438 93.55664062 C1.93913121 95.07710974 1.93913121 95.07710974 4.36175537 96.51591492 C11.05131865 101.01324497 16.51324607 106.52537949 22.17089844 112.20825195 C23.3442819 113.37592097 24.51829094 114.54296163 25.69287109 115.70942688 C28.85669563 118.85542682 32.01101746 122.0107896 35.16307545 125.16857362 C37.80434628 127.81295088 40.45021862 130.45270033 43.09605193 133.09251136 C49.34072345 139.32317532 55.5776104 145.56155532 61.80957031 151.80493164 C68.22128528 158.22813307 74.64568837 164.63843754 81.07652497 171.04248983 C86.61612245 176.55988415 92.14787622 182.08505683 97.67345214 187.6164934 C100.96560439 190.91200428 104.2605348 194.20460306 107.56299591 197.48978615 C110.66815517 200.57940393 113.76333576 203.6786922 116.85134888 206.78544426 C117.98059679 207.91835767 119.11320302 209.04793598 120.24953461 210.1737442 C131.44750648 221.27596124 140.06910986 233.258261 140.36523438 249.61914062 C140.18245729 266.57171562 132.15613084 278.64624578 120.48629761 290.21405029 C116.90080378 293.70494531 113.27416094 297.15237922 109.6443615 300.59710312 C105.52742471 304.51907234 101.45423604 308.48616256 97.375 312.44726562 C92.2146387 317.45768054 87.04236788 322.45259561 81.80981445 327.38769531 C77.5512404 331.40650398 73.3472677 335.4759273 69.17407417 339.58325577 C67.5878683 341.12600902 65.98317577 342.65001194 64.35944939 344.15322495 C54.50866276 353.01708961 54.50866276 353.01708961 50.13816833 365.08235168 C49.94984301 370.31056125 50.44595181 375.37953688 51.11523438 380.55664062 C51.28301808 382.87771644 51.44531194 385.19921678 51.59570312 387.52148438 C51.81498098 389.51424268 52.05048553 391.50528695 52.30273438 393.49414062 C52.43655518 394.58130371 52.57037598 395.6684668 52.70825195 396.78857422 C56.93520065 429.10177198 67.01641081 462.21929178 87.61523438 487.93164062 C89.59995079 490.53286296 90.10897555 491.51978307 90.67773438 494.86914062 C90.04562928 497.88919831 89.51594842 498.70437998 87.11523438 500.55664062 C80.62477375 501.23668228 74.15220295 498.34514976 68.26757812 495.95898438 C67.37027481 495.6052626 66.4729715 495.25154083 65.54847717 494.88710022 C62.71236382 493.76637764 59.88258749 492.6305649 57.05273438 491.49414062 C55.1188898 490.72685511 53.18464837 489.96056905 51.25 489.1953125 C46.53374498 487.32727749 41.82310775 485.44569426 37.11523438 483.55664062 C37.13880005 484.60791138 37.13880005 484.60791138 37.1628418 485.68041992 C37.2253585 488.86824414 37.26427818 492.05593914 37.30273438 495.24414062 C37.32787109 496.34693359 37.35300781 497.44972656 37.37890625 498.5859375 C37.3934082 500.18598633 37.3934082 500.18598633 37.40820312 501.81835938 C37.4317688 503.28728638 37.4317688 503.28728638 37.45581055 504.78588867 C37.05102901 508.07898235 36.12855719 509.93425029 34.11523438 512.55664062 C30.47776981 513.35688283 28.18154044 513.11668311 24.86914062 511.37695312 C22.5303269 509.85455499 20.31594865 508.27327224 18.11523438 506.55664062 C17.12523437 505.78449219 16.13523437 505.01234375 15.11523438 504.21679688 C-6.60102795 485.90862381 -11.37405811 450.00963883 -13.73681641 423.58642578 C-14.05352412 419.24136324 -14.05727029 414.90759169 -13.88476562 410.55664062 C-14.54476562 410.88664062 -15.20476562 411.21664063 -15.88476562 411.55664062 C-17.59179298 411.62660076 -19.30144565 411.64104216 -21.00976562 411.61914062 C-21.91984375 411.61011719 -22.82992187 411.60109375 -23.76757812 411.59179688 C-24.46625 411.58019531 -25.16492188 411.56859375 -25.88476562 411.55664062 C-25.91054687 412.79414063 -25.93632812 414.03164063 -25.96289062 415.30664062 C-26.76354104 442.78130881 -30.08166416 472.07181923 -50.97851562 491.92382812 C-54.88754253 495.27213396 -57.45596707 496.60426724 -62.63476562 496.43164062 C-65.88476562 495.55664062 -65.88476562 495.55664062 -67.88476562 492.55664062 C-68.11181641 490.65551758 -68.11181641 490.65551758 -68.08007812 488.54492188 C-68.07363281 487.78759766 -68.0671875 487.03027344 -68.06054688 486.25 C-68.04378906 485.46431641 -68.02703125 484.67863281 -68.00976562 483.86914062 C-68.00074219 483.07185547 -67.99171875 482.27457031 -67.98242188 481.453125 C-67.95888148 479.48750162 -67.9230111 477.52203288 -67.88476562 475.55664062 C-68.43302002 475.77803711 -68.98127441 475.99943359 -69.54614258 476.22753906 C-74.83362084 478.36006098 -80.12745058 480.47591113 -85.42724609 482.57763672 C-87.43940613 483.37922243 -89.44610136 484.19451382 -91.45117188 485.01367188 C-99.90916085 488.34275516 -99.90916085 488.34275516 -104.88476562 486.55664062 C-106.88476562 484.55664062 -106.88476562 484.55664062 -107.25976562 481.30273438 C-106.8142212 476.85193121 -105.60985198 475.12216549 -102.88476562 471.61914062 C-88.69682572 452.43330449 -81.10089823 427.72859723 -79.11973572 404.07552719 C-78.94984223 402.25426385 -78.74396362 400.4362367 -78.5158844 398.62134171 C-77.2673978 388.00851432 -75.99472174 376.91223494 -82.28759766 367.699646 C-86.62012106 362.3797488 -91.53604298 357.69834227 -96.59300232 353.0752368 C-99.11404346 350.74013772 -101.5521884 348.32115295 -104.00097656 345.91079712 C-108.63737705 341.37091403 -113.33925233 336.90615314 -118.0714817 332.46647513 C-123.9550033 326.94029122 -129.75043213 321.32429906 -135.54492188 315.70507812 C-137.59020501 313.72255629 -139.63611864 311.74068906 -141.68286133 309.75967407 C-142.17959823 309.27886906 -142.67633512 308.79806405 -143.18812466 308.30268919 C-146.57605939 305.02833771 -149.9869336 301.7796036 -153.40893555 298.54086304 C-154.32094223 297.67469864 -155.23294891 296.80853424 -156.17259216 295.91612244 C-157.85720412 294.31811002 -159.54636784 292.72487371 -161.24134827 291.13786316 C-168.21033546 284.5147784 -175.35260254 277.36898412 -178.82226562 268.24414062 C-179.20253906 267.27863281 -179.5828125 266.313125 -179.97460938 265.31835938 C-183.75960884 253.83340392 -183.05635008 240.48307094 -177.88476562 229.55664062 C-173.30370943 222.22618624 -167.8883591 216.16419219 -161.72070312 210.1472168 C-160.83049973 209.26621307 -159.94029633 208.38520935 -159.02311707 207.47750854 C-157.10567564 205.58139464 -155.18580372 203.68819814 -153.26126099 201.79933739 C-150.21842013 198.81188043 -147.18908735 195.81096522 -144.16186523 192.80769348 C-135.55879328 184.27671936 -126.93766557 175.76412451 -118.30419922 167.26391602 C-113.5211315 162.55444022 -108.74886813 157.83428108 -103.9879837 153.10237867 C-100.9799849 150.11399957 -97.95898028 147.13963486 -94.92761898 144.17496622 C-92.61100434 141.90172021 -90.31386513 139.60893448 -88.01367188 137.3190918 C-87.17015671 136.50186142 -86.32664154 135.68463104 -85.45756531 134.84263611 C-84.32626945 133.7054715 -84.32626945 133.7054715 -83.17211914 132.54533386 C-82.50922379 131.89186572 -81.84632843 131.23839758 -81.16334534 130.56512737 C-79.62203192 128.58977457 -79.62203192 128.58977457 -80.09288025 125.98752308 C-81.089258 122.92890213 -82.48669415 120.26605616 -84.00976562 117.43164062 C-99.87538462 86.5687932 -108.44358647 46.11800501 -102.88476562 11.55664062 C-101.40832583 7.81842073 -101.40832583 7.81842073 -98.88476562 6.55664062 C-96.92998614 6.44998785 -94.97156427 6.40779425 -93.01391602 6.39550781 C-91.16673729 6.3810965 -91.16673729 6.3810965 -89.28224182 6.36639404 C-87.93230372 6.36154678 -86.58236347 6.35726778 -85.23242188 6.35351562 C-83.85241188 6.34776448 -82.47240191 6.34200674 -81.09239197 6.33624268 C-78.19806546 6.32573419 -75.30376673 6.31989033 -72.40942383 6.31640625 C-68.69909681 6.31091745 -64.98913603 6.28688106 -61.27892399 6.2584343 C-58.42820661 6.23982044 -55.57757775 6.23460303 -52.72680473 6.23307037 C-51.35884025 6.23004116 -49.99087742 6.22200353 -48.62297249 6.20888519 C-46.71039191 6.19185062 -44.79766055 6.19554601 -42.88500977 6.20019531 C-41.25191612 6.19472687 -41.25191612 6.19472687 -39.58583069 6.18914795 C-36.88476562 6.55664062 -36.88476562 6.55664062 -35.03562927 7.87188721 C-33.06416336 10.75792322 -33.50479787 13.17277683 -33.88476562 16.55664062 C-35.42382812 19.55664062 -35.42382812 19.55664062 -37.50976562 22.55664062 C-48.93130059 39.88061364 -54.02427317 61.30518338 -50.47900391 81.91552734 C-49.56603198 85.90226118 -48.34610312 89.73367735 -46.88476562 93.55664062 C-45.68004217 89.51462456 -44.61165778 85.47022834 -43.65820312 81.36132812 C-39.85789674 65.10514964 -22.441456 -1.4070626 0 0 Z " fill="#A4D16A" transform="translate(276.884765625,-0.556640625)"/>
<path d="M0 0 C4.9534313 1.30353455 9.13991994 4.51456631 13.36523438 7.30664062 C14.94183838 8.32141479 14.94183838 8.32141479 16.55029297 9.35668945 C18.70371039 10.74307607 20.85330093 12.13542486 22.99902344 13.53369141 C27.54832546 16.4869597 32.14496778 19.36317038 36.74023438 22.24414062 C39.53797983 24.00559643 42.32975101 25.77586423 45.11523438 27.55664062 C45.71432617 27.9351416 46.31341797 28.31364258 46.93066406 28.70361328 C50.99923525 31.32464238 50.99923525 31.32464238 52.11523438 33.55664062 C52.49023438 36.43164062 52.49023438 36.43164062 52.11523438 39.55664062 C48.87906534 42.57202973 45.55822151 44.42940972 41.55273438 46.24414062 C34.74216766 49.55716261 29.01134871 53.83974915 23.11523438 58.55664062 C22.46941406 59.03617188 21.82359375 59.51570313 21.15820312 60.00976562 C11.40356599 67.59416733 4.2424028 79.04754495 0.11523438 90.55664062 C0.11523438 91.54664062 0.11523438 92.53664063 0.11523438 93.55664062 C1.98697142 95.11875268 1.98697142 95.11875268 4.45117188 96.59179688 C10.61162237 100.72158036 15.58668725 105.69171325 20.74023438 110.99414062 C22.10341797 112.37762695 22.10341797 112.37762695 23.49414062 113.7890625 C25.70826633 116.03814808 27.91501189 118.29396641 30.11523438 120.55664062 C25.050232 126.68082223 19.53694228 132.26379924 13.90429688 137.86523438 C12.9261617 138.84150048 11.94825003 139.81799056 10.97055054 140.79469299 C8.41809039 143.3433664 5.86263989 145.8890202 3.30651855 148.434021 C0.69013524 151.0401068 -1.92335866 153.64908683 -4.53710938 156.2578125 C-9.65019808 161.36023181 -14.76645474 166.4594592 -19.88476562 171.55664062 C-23.54357739 170.01707929 -25.86768352 167.81575005 -28.65332031 165.01513672 C-29.11232224 164.55642685 -29.57132416 164.09771698 -30.04423523 163.62510681 C-31.55316238 162.11479152 -33.05489017 160.59752675 -34.55664062 159.08007812 C-35.60423787 158.02874892 -36.65227891 156.97786177 -37.70074463 155.92739868 C-40.45389082 153.16663046 -43.2009769 150.39990813 -45.94683838 147.63189697 C-48.75193478 144.80631135 -51.56272883 141.98640618 -54.37304688 139.16601562 C-59.88254095 133.63509688 -65.38564439 128.09787474 -70.88476562 122.55664062 C-73.81923449 123.97455625 -76.31808971 125.5399667 -78.88476562 127.55664062 C-97.16753912 93.17919152 -109.19140434 50.76748135 -102.88476562 11.55664062 C-101.40832583 7.81842073 -101.40832583 7.81842073 -98.88476562 6.55664062 C-96.92998614 6.44998785 -94.97156427 6.40779425 -93.01391602 6.39550781 C-91.16673729 6.3810965 -91.16673729 6.3810965 -89.28224182 6.36639404 C-87.93230372 6.36154678 -86.58236347 6.35726778 -85.23242188 6.35351562 C-83.85241188 6.34776448 -82.47240191 6.34200674 -81.09239197 6.33624268 C-78.19806546 6.32573419 -75.30376673 6.31989033 -72.40942383 6.31640625 C-68.69909681 6.31091745 -64.98913603 6.28688106 -61.27892399 6.2584343 C-58.42820661 6.23982044 -55.57757775 6.23460303 -52.72680473 6.23307037 C-51.35884025 6.23004116 -49.99087742 6.22200353 -48.62297249 6.20888519 C-46.71039191 6.19185062 -44.79766055 6.19554601 -42.88500977 6.20019531 C-41.25191612 6.19472687 -41.25191612 6.19472687 -39.58583069 6.18914795 C-36.88476562 6.55664063 -36.88476562 6.55664063 -35.03562927 7.87188721 C-33.06416336 10.75792322 -33.50479787 13.17277683 -33.88476562 16.55664062 C-35.42382812 19.55664063 -35.42382812 19.55664063 -37.50976562 22.55664062 C-48.93130059 39.88061364 -54.02427317 61.30518338 -50.47900391 81.91552734 C-49.56603198 85.90226118 -48.34610312 89.73367735 -46.88476562 93.55664062 C-45.68004217 89.51462456 -44.61165778 85.47022834 -43.65820312 81.36132812 C-39.85789674 65.10514964 -22.441456 -1.4070626 0 0 Z " fill="#87B946" transform="translate(276.884765625,-0.556640625)"/>
<path d="M0 0 C1.44078064 1.45954895 1.44078064 1.45954895 3.11694336 3.48364258 C6.92343516 7.957104 10.97122482 12.11588047 15.12890625 16.26171875 C15.88163315 17.01540237 16.63436005 17.769086 17.40989685 18.54560852 C18.98940332 20.12579079 20.57015446 21.70472984 22.15209961 23.2824707 C24.5628418 25.68784104 26.96817921 28.09852355 29.37304688 30.50976562 C30.91634602 32.05240418 32.45995524 33.59473262 34.00390625 35.13671875 C34.71656143 35.85139816 35.42921661 36.56607758 36.16346741 37.30241394 C39.1790418 40.30396168 42.17804155 43.20419028 45.49975586 45.86645508 C46.32483643 46.5705249 47.14991699 47.27459473 48 48 C48 48.66 48 49.32 48 50 C52.91867007 47.45618399 56.41744532 43.84559258 60.25 39.9375 C60.88679688 39.30005859 61.52359375 38.66261719 62.1796875 38.00585938 C65.49250036 34.80153218 65.49250036 34.80153218 68 31 C68.66 31 69.32 31 70 31 C70.05945801 32.25768188 70.05945801 32.25768188 70.12011719 33.54077148 C72.29990505 77.69351871 78.99710664 123.79644693 107.5 159.375 C109.48471641 161.97622233 109.99374117 162.96314245 110.5625 166.3125 C109.9303949 169.33255768 109.40071404 170.14773936 107 172 C100.50953938 172.68004165 94.03696858 169.78850913 88.15234375 167.40234375 C87.25504044 167.04862198 86.35773712 166.69490021 85.4332428 166.33045959 C82.59712945 165.20973701 79.76735311 164.07392428 76.9375 162.9375 C75.00365543 162.17021449 73.06941399 161.40392842 71.13476562 160.63867188 C66.41851061 158.77063686 61.70787338 156.88905364 57 155 C57.01571045 155.70084717 57.0314209 156.40169434 57.04760742 157.1237793 C57.11012412 160.31160351 57.14904381 163.49929851 57.1875 166.6875 C57.21263672 167.79029297 57.23777344 168.89308594 57.26367188 170.02929688 C57.27333984 171.09599609 57.28300781 172.16269531 57.29296875 173.26171875 C57.3086792 174.24100342 57.32438965 175.22028809 57.34057617 176.22924805 C56.93579463 179.52234173 56.01332281 181.37760966 54 184 C50.36253544 184.8002422 48.06630606 184.56004249 44.75390625 182.8203125 C42.41509253 181.29791436 40.20071428 179.71663161 38 178 C36.515 176.84177734 36.515 176.84177734 35 175.66015625 C13.28373767 157.35198318 8.51070752 121.45299821 6.14794922 95.02978516 C5.83124151 90.68472261 5.82749533 86.35095106 6 82 C4.91203125 82.05800781 3.8240625 82.11601562 2.703125 82.17578125 C-13.54903051 82.77668258 -24.22413338 77.65453828 -36.18359375 66.64453125 C-37.57771484 65.33548828 -37.57771484 65.33548828 -39 64 C-39.54156738 63.49774902 -40.08313477 62.99549805 -40.64111328 62.47802734 C-42.33785814 60.89585524 -44.01459666 59.29482829 -45.6875 57.6875 C-46.22906738 57.18412109 -46.77063477 56.68074219 -47.32861328 56.16210938 C-48.82421875 54.69921875 -48.82421875 54.69921875 -51 52 C-50.81887012 47.95510794 -48.25744316 45.88308234 -45.51196289 43.13964844 C-45.04685806 42.67089294 -44.58175323 42.20213745 -44.10255432 41.71917725 C-42.56655727 40.17508802 -41.01998679 38.64210037 -39.47265625 37.109375 C-38.40219379 36.03943117 -37.33224932 34.96896888 -36.26280212 33.89801025 C-34.02209248 31.65739027 -31.77630855 29.42202473 -29.52661133 27.19042969 C-26.6383254 24.32487172 -23.76128701 21.44832849 -20.88771915 18.56801987 C-18.6808406 16.35780639 -16.46901701 14.15259815 -14.25555229 11.94898224 C-13.19244315 10.88973053 -12.13068912 9.82911704 -11.07029915 8.76714325 C-9.59087882 7.2873536 -8.10515451 5.81420942 -6.61743164 4.34277344 C-5.77217422 3.50212341 -4.92691681 2.66147339 -4.05604553 1.79534912 C-2 0 -2 0 0 0 Z " fill="#88B946" transform="translate(257,328)"/>
<path d="M0 0 C3.99464445 1.61076347 6.70825624 4.40568558 9.70239258 7.39599609 C10.2605365 7.9458165 10.81868042 8.4956369 11.39373779 9.06211853 C13.23280111 10.87712859 15.06415396 12.69967071 16.89453125 14.5234375 C18.16908733 15.78902784 19.44372119 17.05453986 20.71842957 18.31997681 C23.3859229 20.97099324 26.04900214 23.62636088 28.7097168 26.28417969 C32.12576244 29.69482503 35.55769156 33.08899983 38.99374866 36.47946739 C41.62977029 39.08581288 44.25453266 41.70327414 46.87625694 44.32399368 C48.13731492 45.58083509 49.40251019 46.83353909 50.6718235 48.08204269 C52.44140199 49.82488755 54.19462363 51.58269959 55.94458008 53.34521484 C56.47488327 53.86068375 57.00518646 54.37615265 57.55155945 54.90724182 C60.95129126 58.3772322 60.95129126 58.3772322 61.15582275 60.99227905 C59.40922517 64.02620492 57.04231721 66.34791026 54.56225586 68.77832031 C53.71347618 69.62775711 53.71347618 69.62775711 52.84754944 70.49435425 C50.97700443 72.36281064 49.09606074 74.22041899 47.21484375 76.078125 C45.91524591 77.37212717 44.6163092 78.66679364 43.31800842 79.96209717 C39.90016715 83.36848751 36.47341237 86.7657726 33.04473877 90.16125488 C29.54719606 93.62810229 26.05813702 97.10346437 22.56835938 100.578125 C15.72052726 107.39378855 8.86325073 114.19986543 2 121 C-2.05602714 119.38376737 -4.76955528 116.49847324 -7.77832031 113.44873047 C-8.34461151 112.88273132 -8.91090271 112.31673218 -9.49435425 111.73358154 C-11.36039238 109.8661528 -13.21925096 107.99174538 -15.078125 106.1171875 C-16.37234554 104.81923589 -17.66700905 103.52172584 -18.96209717 102.22463989 C-22.36625646 98.81285164 -25.76436634 95.39509948 -29.16125488 91.97607422 C-32.62991407 88.4869408 -36.10425583 85.00347613 -39.578125 81.51953125 C-46.39099302 74.68522632 -53.1974842 67.84460797 -60 61 C-54.31978209 54.05896567 -47.94998244 47.82326094 -41.6015625 41.50390625 C-40.39922532 40.30343713 -39.19711095 39.10274482 -37.99520874 37.90184021 C-34.85090837 34.76133452 -31.70361521 31.62384519 -28.55566406 28.48699951 C-25.33605827 25.27767382 -22.11932679 22.06546995 -18.90234375 18.85351562 C-12.60435365 12.56620898 -6.30319435 6.28208894 0 0 Z " fill="#009442" transform="translate(255,189)"/>
<path d="M0 0 C2.73266133 1.55592264 4.6847648 3.48761713 6.90150452 5.72149658 C7.38001358 6.19956757 7.85852264 6.67763855 8.35153198 7.17019653 C9.92781569 8.74856646 11.49321337 10.33728774 13.05873108 11.92633057 C14.15095036 13.02414638 15.24383487 14.12130072 16.33735657 15.21781921 C19.21110481 18.10301164 22.07572944 20.99710002 24.93855286 23.89312744 C27.86248277 26.84776728 30.79494334 29.79391331 33.72669983 32.74078369 C39.47597317 38.52221367 45.21563672 44.31306857 50.94935608 50.10992432 C45.95778272 56.12262922 40.57347941 61.66290891 35.06263733 67.19976807 C34.36490739 67.90173907 34.36490739 67.90173907 33.65308189 68.61789131 C31.20137485 71.08446732 28.74690378 73.5482508 26.28993225 76.00958252 C23.75446375 78.55058206 21.22844013 81.10076451 18.70438862 83.65309811 C16.7560435 85.62001947 14.80106884 87.58024671 12.84418297 89.53866768 C11.45515226 90.93219642 10.07321249 92.33278157 8.69137573 93.73344421 C7.85007614 94.57174271 7.00877655 95.4100412 6.14198303 96.27374268 C5.03328606 97.3879081 5.03328606 97.3879081 3.90219116 98.52458191 C1.94935608 100.10992432 1.94935608 100.10992432 -1.05064392 100.10992432 C-1.2955658 100.68226807 -1.54048767 101.25461182 -1.79283142 101.84429932 C-3.26174491 104.49016833 -5.00412636 106.25845571 -7.17564392 108.35992432 C-7.90009705 109.06633057 -8.62455017 109.77273682 -9.37095642 110.50054932 C-10.20240173 111.29718994 -10.20240173 111.29718994 -11.05064392 112.10992432 C-11.77841034 111.38052139 -12.50617676 110.65111847 -13.2559967 109.89961243 C-15.74748049 107.41254978 -18.25191113 104.94010903 -20.76499939 102.47491455 C-25.22481815 98.09473275 -29.67382804 93.7038605 -34.11492729 89.30470181 C-36.79503383 86.65082152 -39.47968314 84.00187568 -42.17466736 81.36309814 C-44.79137484 78.80059186 -47.39578688 76.22616973 -49.99202347 73.64293098 C-50.98208522 72.66211257 -51.97653984 71.68570814 -52.97538376 70.71383476 C-54.36594258 69.35941165 -55.73975281 67.98785644 -57.11265564 66.61553955 C-58.29249527 65.45235451 -58.29249527 65.45235451 -59.49617004 64.26567078 C-61.05064392 62.10992432 -61.05064392 62.10992432 -61.13265991 60.19046021 C-59.51002278 57.07040024 -57.14479096 54.77056367 -54.67637634 52.31573486 C-54.11694839 51.74783737 -53.55752045 51.17993988 -52.98114014 50.59483337 C-51.13057536 48.72087738 -49.2690215 46.85832288 -47.40611267 44.99664307 C-46.11645328 43.69988516 -44.82709469 42.40282803 -43.5380249 41.10548401 C-40.83541186 38.38942251 -38.12692877 35.67937681 -35.41465759 32.97296143 C-31.93387392 29.49808446 -28.47171225 26.00528091 -25.01414013 22.50732708 C-22.35737887 19.82476743 -19.68928479 17.15371001 -17.01777077 14.48584938 C-15.73595046 13.20233152 -14.45812924 11.91480728 -13.18436241 10.62329674 C-11.40557239 8.82246566 -9.6117398 7.03811101 -7.81309509 5.25714111 C-7.02350906 4.44766022 -7.02350906 4.44766022 -6.2179718 3.62182617 C-2.65749731 0.14245456 -2.65749731 0.14245456 0 0 Z " fill="#94CB4B" transform="translate(326.05064392089844,258.89007568359375)"/>
<path d="M0 0 C3.26962487 1.60781378 5.62962739 4.29175075 8.14883423 6.86553955 C8.74806198 7.46664047 9.34728973 8.06774139 9.9646759 8.6870575 C11.23311382 9.9622167 12.49794924 11.24096805 13.75942993 12.52301025 C15.66747315 14.46191002 17.58569335 16.39022025 19.5062561 18.31671143 C24.86390221 23.70898569 30.13953234 29.10721425 35.06997681 34.89654541 C39.42695597 39.77911348 44.17184434 44.31714825 48.81680298 48.9241333 C49.89320951 49.99551217 50.96938312 51.06712512 52.0453186 52.13897705 C54.65397042 54.73672968 57.26574769 57.33131292 59.87930298 59.9241333 C54.8143006 66.0483149 49.30101088 71.63129191 43.66836548 77.23272705 C42.69023031 78.20899316 41.71231863 79.18548324 40.73461914 80.16218567 C38.18215899 82.71085907 35.62670849 85.25651288 33.07058716 87.80151367 C30.45420384 90.40759948 27.84070995 93.01657951 25.22695923 95.62530518 C20.11387052 100.72772448 14.99761386 105.82695187 9.87930298 110.9241333 C5.88465853 109.31336983 3.17104674 106.51844773 0.1769104 103.52813721 C-0.38123352 102.9783168 -0.93937744 102.4284964 -1.51443481 101.86201477 C-3.35349814 100.04700471 -5.18485098 98.22446259 -7.01522827 96.4006958 C-8.28978436 95.13510546 -9.56441821 93.86959344 -10.83912659 92.60415649 C-13.50661993 89.95314006 -16.16969916 87.29777242 -18.83041382 84.63995361 C-22.24645946 81.22930827 -25.67838858 77.83513347 -29.11444569 74.44466591 C-31.75046731 71.83832043 -34.37522968 69.22085916 -36.99695396 66.60013962 C-38.25801194 65.34329821 -39.52320721 64.09059421 -40.79252052 62.84209061 C-42.56209901 61.09924575 -44.31532065 59.34143371 -46.0652771 57.57891846 C-46.59558029 57.06344955 -47.12588348 56.54798065 -47.67225647 56.01689148 C-51.09296283 52.52549309 -51.09296283 52.52549309 -51.21517944 49.87547302 C-49.70439056 47.18190545 -47.83934023 45.24469458 -45.66439819 43.0479126 C-44.97155983 42.34236992 -44.97155983 42.34236992 -44.26472473 41.62257385 C-42.73878903 40.07327651 -41.20193816 38.53539464 -39.66366577 36.99835205 C-38.59820943 35.92579569 -37.53305341 34.85294092 -36.46818542 33.77980042 C-34.23634867 31.53452227 -31.99866578 29.29526663 -29.75717163 27.05963135 C-26.88169982 24.19006755 -24.02492833 21.30264501 -21.17267895 18.41002178 C-18.97914897 16.19068561 -16.77429578 13.98287753 -14.5660038 11.7782383 C-13.5074681 10.71800596 -12.45292685 9.65377026 -11.40245628 8.58554649 C-9.93495529 7.09598656 -8.45253992 5.62307428 -6.96517944 4.15338135 C-5.70395515 2.88907539 -5.70395515 2.88907539 -4.41725159 1.59922791 C-2.12069702 -0.0758667 -2.12069702 -0.0758667 0 0 Z " fill="#94CA4C" transform="translate(187.12069702148438,259.07586669921875)"/>
<path d="M0 0 C6.94103433 5.68021791 13.17673906 12.05001756 19.49609375 18.3984375 C20.69656287 19.60077468 21.89725518 20.80288905 23.09815979 22.00479126 C26.23866548 25.14909163 29.37615481 28.29638479 32.51300049 31.44433594 C35.72232618 34.66394173 38.93453005 37.88067321 42.14648438 41.09765625 C48.43379102 47.39564635 54.71791106 53.69680565 61 60 C59.450168 63.70044944 57.19605329 66.04581087 54.36669922 68.86035156 C53.89823578 69.32910706 53.42977234 69.79786255 52.94711304 70.28082275 C51.40433305 71.82221432 49.85460036 73.35640873 48.3046875 74.890625 C47.23093808 75.96064255 46.15763067 77.03110381 45.08474731 78.10198975 C42.26479548 80.91431879 39.43888846 83.72058889 36.61169434 86.52563477 C33.7257863 89.39105523 30.84555743 92.26217168 27.96484375 95.1328125 C22.31543511 100.76079512 16.65972175 106.38238884 11 112 C4.05896567 106.31978209 -2.17673906 99.94998244 -8.49609375 93.6015625 C-9.69656287 92.39922532 -10.89725518 91.19711095 -12.09815979 89.99520874 C-15.23866548 86.85090837 -18.37615481 83.70361521 -21.51300049 80.55566406 C-24.72232618 77.33605827 -27.93453005 74.11932679 -31.14648438 70.90234375 C-37.43379102 64.60435365 -43.71791106 58.30319435 -50 52 C-48.450168 48.29955056 -46.19605329 45.95418913 -43.36669922 43.13964844 C-42.89823578 42.67089294 -42.42977234 42.20213745 -41.94711304 41.71917725 C-40.40433305 40.17778568 -38.85460036 38.64359127 -37.3046875 37.109375 C-36.23093808 36.03935745 -35.15763067 34.96889619 -34.08474731 33.89801025 C-31.26479548 31.08568121 -28.43888846 28.27941111 -25.61169434 25.47436523 C-22.7257863 22.60894477 -19.84555743 19.73782832 -16.96484375 16.8671875 C-11.31543511 11.23920488 -5.65972175 5.61761116 0 0 Z " fill="#94CB4C" transform="translate(315,129)"/>
<path d="M0 0 C6.1241816 5.06500238 11.70715861 10.5782921 17.30859375 16.2109375 C18.28485986 17.18907267 19.26134994 18.16698435 20.23805237 19.14468384 C22.78672577 21.69714399 25.33237958 24.25259448 27.87738037 26.80871582 C30.48346618 29.42509914 33.09244621 32.03859303 35.70117188 34.65234375 C40.80359118 39.76543246 45.90281857 44.88168912 51 50 C49.38376737 54.05602714 46.49847324 56.76955528 43.44873047 59.77832031 C42.88273132 60.34461151 42.31673218 60.91090271 41.73358154 61.49435425 C39.8661528 63.36039238 37.99174538 65.21925096 36.1171875 67.078125 C34.81923589 68.37234554 33.52172584 69.66700905 32.22463989 70.96209717 C28.81285164 74.36625646 25.39509948 77.76436634 21.97607422 81.16125488 C18.4869408 84.62991407 15.00347613 88.10425583 11.51953125 91.578125 C4.68522632 98.39099302 -2.15539203 105.1974842 -9 112 C-15.1241816 106.93499762 -20.70715861 101.4217079 -26.30859375 95.7890625 C-27.28485986 94.81092733 -28.26134994 93.83301565 -29.23805237 92.85531616 C-31.78672577 90.30285601 -34.33237958 87.74740552 -36.87738037 85.19128418 C-39.48346618 82.57490086 -42.09244621 79.96140697 -44.70117188 77.34765625 C-49.80359118 72.23456754 -54.90281857 67.11831088 -60 62 C-58.38376737 57.94397286 -55.49847324 55.23044472 -52.44873047 52.22167969 C-51.88273132 51.65538849 -51.31673218 51.08909729 -50.73358154 50.50564575 C-48.8661528 48.63960762 -46.99174538 46.78074904 -45.1171875 44.921875 C-43.81923589 43.62765446 -42.52172584 42.33299095 -41.22463989 41.03790283 C-37.81285164 37.63374354 -34.39509948 34.23563366 -30.97607422 30.83874512 C-27.4869408 27.37008593 -24.00347613 23.89574417 -20.51953125 20.421875 C-13.68522632 13.60900698 -6.84460797 6.8025158 0 0 Z " fill="#94CB4C" transform="translate(196,129)"/>
<path d="M0 0 C7.36095406 5.02337945 7.36095406 5.02337945 10.1875 8.5625 C20.84573511 21.1847245 33.75236522 34.69228348 51.1015625 36.53125 C54.73144207 36.81781944 58.35907118 36.94528659 62 37 C62 37.33 62 37.66 62 38 C58.7 38 55.4 38 52 38 C51.97421875 39.2375 51.9484375 40.475 51.921875 41.75 C51.12122459 69.22466819 47.80310147 98.5151786 26.90625 118.3671875 C22.99722309 121.71549333 20.42879855 123.04762662 15.25 122.875 C12 122 12 122 10 119 C9.77294922 117.09887695 9.77294922 117.09887695 9.8046875 114.98828125 C9.81113281 114.23095703 9.81757813 113.47363281 9.82421875 112.69335938 C9.84097656 111.90767578 9.85773438 111.12199219 9.875 110.3125 C9.88402344 109.51521484 9.89304688 108.71792969 9.90234375 107.89648438 C9.92588415 105.930861 9.96175453 103.96539225 10 102 C9.45174561 102.22139648 8.90349121 102.44279297 8.33862305 102.67089844 C3.05114479 104.80342036 -2.24268495 106.9192705 -7.54248047 109.02099609 C-9.55464051 109.8225818 -11.56133574 110.6378732 -13.56640625 111.45703125 C-22.02439523 114.78611453 -22.02439523 114.78611453 -27 113 C-29 111 -29 111 -29.375 107.74609375 C-28.92945557 103.29529058 -27.72508636 101.56552486 -25 98.0625 C-3.88561991 69.51029023 -0.88357377 34.3121149 0 0 Z " fill="#88B946" transform="translate(199,373)"/>
<path d="M0 0 C3.64313393 1.49990901 5.62434157 3.57717051 8.17553711 6.54443359 C12.66650846 11.65799357 17.36451849 16.493921 22.19140625 21.2890625 C23.02212143 22.11836273 23.85283661 22.94766296 24.70872498 23.80209351 C27.32428084 26.41211764 29.94331779 29.01861549 32.5625 31.625 C34.3524465 33.40992266 36.1421621 35.19507691 37.93164062 36.98046875 C42.28509905 41.32298891 46.64140962 45.66263113 51 50 C49.46043866 53.65881177 47.25910943 55.9829179 44.45849609 58.76855469 C43.99978622 59.22755661 43.54107635 59.68655853 43.06846619 60.1594696 C41.5581509 61.66839675 40.04088612 63.17012454 38.5234375 64.671875 C37.4721083 65.71947224 36.42122115 66.76751328 35.37075806 67.815979 C32.60998984 70.5691252 29.84326751 73.31621127 27.07525635 76.06207275 C24.24967072 78.86716916 21.42976555 81.67796321 18.609375 84.48828125 C13.07845626 89.99777532 7.54123411 95.50087877 2 101 C-1.35210535 99.71724041 -3.72889267 98.64925552 -6.26953125 96.09375 C-7.13203491 95.23305908 -7.13203491 95.23305908 -8.01196289 94.35498047 C-8.60614014 93.74283691 -9.20031738 93.13069336 -9.8125 92.5 C-10.4305249 91.86852051 -11.0485498 91.23704102 -11.68530273 90.58642578 C-23.64817708 78.23289495 -31.29514175 66.69764366 -31.31469727 49.01293945 C-30.96285603 31.74773622 -21.38066705 20.86133947 -9.5625 9.375 C-8.64017578 8.46621094 -7.71785156 7.55742187 -6.76757812 6.62109375 C-4.51849254 4.40696805 -2.26267422 2.20022249 0 0 Z " fill="#029441" transform="translate(126,199)"/>
<path d="M0 0 C15.21524616 12.9277245 30.46495461 26.31377442 32.203125 47.47265625 C32.55108646 66.69752704 23.71737708 79.04654579 10.97045898 92.40551758 C10.40270752 92.99357178 9.83495605 93.58162598 9.25 94.1875 C8.70738525 94.76459717 8.16477051 95.34169434 7.60571289 95.9362793 C3.71091594 99.87174049 3.71091594 99.87174049 0.62239075 100.42895508 C-3.03598119 99.83054036 -4.38308289 98.21872341 -6.97387695 95.59375 C-7.44277847 95.12557861 -7.91167999 94.65740723 -8.39479065 94.17504883 C-9.93810557 92.62825698 -11.4629671 91.06452852 -12.98828125 89.5 C-14.05621197 88.42274155 -15.12525374 87.34658348 -16.19535828 86.27148438 C-19.00620564 83.44156424 -21.80171453 80.59695136 -24.59429932 77.74902344 C-27.44763935 74.84449742 -30.31522124 71.95410871 -33.18164062 69.0625 C-38.80180222 63.38874578 -44.40583964 57.69939179 -50 52 C-48.450168 48.29955056 -46.19605329 45.95418913 -43.36669922 43.13964844 C-42.89823578 42.67089294 -42.42977234 42.20213745 -41.94711304 41.71917725 C-40.40433305 40.17778568 -38.85460036 38.64359127 -37.3046875 37.109375 C-36.23093808 36.03935745 -35.15763067 34.96889619 -34.08474731 33.89801025 C-31.26479548 31.08568121 -28.43888846 28.27941111 -25.61169434 25.47436523 C-22.7257863 22.60894477 -19.84555743 19.73782832 -16.96484375 16.8671875 C-11.31543511 11.23920488 -5.65972175 5.61761116 0 0 Z " fill="#029441" transform="translate(385,199)"/>
<path d="M0 0 C0.87374268 0.00829834 1.74748535 0.01659668 2.64770508 0.02514648 C20.98759573 0.49798888 30.97446454 8.66057671 43.4375 21.375 C44.30310547 22.24962891 45.16871094 23.12425781 46.06054688 24.02539062 C48.17006075 26.15821405 50.27471873 28.29559096 52.375 30.4375 C47.30999762 36.5616816 41.7967079 42.14465861 36.1640625 47.74609375 C35.18592733 48.72235986 34.20801565 49.69884994 33.23031616 50.67555237 C30.67785601 53.22422577 28.12240552 55.76987958 25.56628418 58.31488037 C22.94990086 60.92096618 20.33640697 63.52994621 17.72265625 66.13867188 C12.60956754 71.24109118 7.49331088 76.34031857 2.375 81.4375 C-1.28381177 79.89793866 -3.6079179 77.69660943 -6.39355469 74.89599609 C-6.85255661 74.43728622 -7.31155853 73.97857635 -7.7844696 73.50596619 C-9.29339675 71.9956509 -10.79512454 70.47838612 -12.296875 68.9609375 C-13.34447224 67.9096083 -14.39251328 66.85872115 -15.440979 65.80825806 C-18.1941252 63.04748984 -20.94121127 60.28076751 -23.68707275 57.51275635 C-26.49216916 54.68717072 -29.30296321 51.86726555 -32.11328125 49.046875 C-37.62277532 43.51595626 -43.12587877 37.97873411 -48.625 32.4375 C-45.94792555 26.77349915 -41.45130358 22.89511387 -37.0625 18.5 C-36.19302734 17.60603516 -35.32355469 16.71207031 -34.42773438 15.79101562 C-29.23459268 10.57463839 -24.35633757 6.46108694 -17.625 3.4375 C-16.96508057 3.12554687 -16.30516113 2.81359375 -15.62524414 2.4921875 C-10.43747122 0.27060915 -5.60010706 -0.06888267 0 0 Z " fill="#019442" transform="translate(254.625,89.5625)"/>
<path d="M0 0 C1.44078064 1.45954895 1.44078064 1.45954895 3.11694336 3.48364258 C6.92343516 7.957104 10.97122482 12.11588047 15.12890625 16.26171875 C15.88163315 17.01540237 16.63436005 17.769086 17.40989685 18.54560852 C18.98940332 20.12579079 20.57015446 21.70472984 22.15209961 23.2824707 C24.5628418 25.68784104 26.96817921 28.09852355 29.37304688 30.50976562 C30.91634602 32.05240418 32.45995524 33.59473262 34.00390625 35.13671875 C34.71656143 35.85139816 35.42921661 36.56607758 36.16346741 37.30241394 C39.15856072 40.28357586 42.13276265 43.16641479 45.43725586 45.80395508 C48 48 48 48 49 51 C46.00482807 54.17129021 42.98498885 57.31649207 39.94238281 60.44213867 C38.91581948 61.50340049 37.89567604 62.57091905 36.8828125 63.64526367 C26.61331474 74.52094707 16.60855911 81.1561795 1.23828125 82.2734375 C-15.94122877 82.71788254 -26.7127123 75.53743935 -39 64 C-39.54156738 63.49774902 -40.08313477 62.99549805 -40.64111328 62.47802734 C-42.33785814 60.89585524 -44.01459666 59.29482829 -45.6875 57.6875 C-46.22906738 57.18412109 -46.77063477 56.68074219 -47.32861328 56.16210938 C-48.82421875 54.69921875 -48.82421875 54.69921875 -51 52 C-50.81887012 47.95510794 -48.25744316 45.88308234 -45.51196289 43.13964844 C-45.04685806 42.67089294 -44.58175323 42.20213745 -44.10255432 41.71917725 C-42.56655727 40.17508802 -41.01998679 38.64210037 -39.47265625 37.109375 C-38.40219379 36.03943117 -37.33224932 34.96896888 -36.26280212 33.89801025 C-34.02209248 31.65739027 -31.77630855 29.42202473 -29.52661133 27.19042969 C-26.6383254 24.32487172 -23.76128701 21.44832849 -20.88771915 18.56801987 C-18.6808406 16.35780639 -16.46901701 14.15259815 -14.25555229 11.94898224 C-13.19244315 10.88973053 -12.13068912 9.82911704 -11.07029915 8.76714325 C-9.59087882 7.2873536 -8.10515451 5.81420942 -6.61743164 4.34277344 C-5.77217422 3.50212341 -4.92691681 2.66147339 -4.05604553 1.79534912 C-2 0 -2 0 0 0 Z " fill="#019442" transform="translate(257,328)"/>
<path d="M0 0 C0.66 0 1.32 0 2 0 C2.58234706 4.6927476 3.07290913 9.09253091 0.69180298 13.32577515 C-1.23463346 15.58639302 -3.25916387 17.6279611 -5.41796875 19.66796875 C-6.18619461 20.43248856 -6.95442047 21.19700836 -7.7459259 21.98469543 C-9.37332101 23.59334457 -11.01395883 25.18869335 -12.66674805 26.77124023 C-15.1624862 29.16352309 -17.61357552 31.59507093 -20.06054688 34.03710938 C-45.37345656 59 -45.37345656 59 -62 59 C-62.33 56.03 -62.66 53.06 -63 50 C-61.7625 49.79375 -60.525 49.5875 -59.25 49.375 C-46.91142322 46.53160619 -38.68603134 39.49169297 -30.25 30.5625 C-28.3021717 28.53782605 -26.3462278 26.52106762 -24.390625 24.50390625 C-23.92427139 24.01968704 -23.45791779 23.53546783 -22.97743225 23.03657532 C-19.70854701 19.66195794 -16.30554408 16.52896573 -12.72900391 13.48657227 C-10.22010203 11.32945514 -7.89859343 9.03088233 -5.5625 6.6875 C-4.71816406 5.84574219 -3.87382812 5.00398438 -3.00390625 4.13671875 C-0.96340293 2.1648487 -0.96340293 2.1648487 0 0 Z " fill="#77A740" transform="translate(325,359)"/>
<path d="M0 0 C4.76432268 3.1113944 8.26740536 6.28859017 11.92578125 10.62109375 C22.94109718 23.25447869 35.63820758 35.31045882 53.18896484 36.69604492 C56.12548197 36.86196753 59.05929338 36.95580905 62 37 C62 37.33 62 37.66 62 38 C58.7 38 55.4 38 52 38 C51.67 39.98 51.34 41.96 51 44 C38.74324933 45.17853372 29.23645392 38.27334845 20 31 C16.30407964 27.85655415 12.79173098 24.56784484 9.3125 21.1875 C8.40822266 20.36185547 7.50394531 19.53621094 6.57226562 18.68554688 C0.29276014 12.56741946 0.29276014 12.56741946 -0.57666016 7.91259766 C-0.58142766 5.20595547 -0.42682593 2.67012881 0 0 Z " fill="#78A740" transform="translate(199,373)"/>
<path d="M0 0 C0.99 0.33 1.98 0.66 3 1 C-5.66666667 9.66666667 -14.33333333 18.33333333 -23 27 C-23 23.39104039 -22.38567356 22.93827719 -20.02734375 20.34375 C-19.38780762 19.63992187 -18.74827148 18.93609375 -18.08935547 18.2109375 C-14.64884185 14.57021638 -11.12546424 11.0205868 -7.5625 7.5 C-6.83095703 6.77296875 -6.09941406 6.0459375 -5.34570312 5.296875 C-3.56610176 3.52890501 -1.78419082 1.76333622 0 0 Z " fill="#1D9F44" transform="translate(126,199)"/>
</svg>
